{
	"asset":{
		"generator":"Khronos glTF Blender I/O v4.3.47",
		"version":"2.0"
	},
	"scene":0,
	"scenes":[
		{
			"name":"Scene",
			"nodes":[
				0,
				1,
				2,
				3,
				4,
				5,
				6
			]
		}
	],
	"nodes":[
		{
			"mesh":0,
			"name":"Cube",
			"scale":[
				0.7854067087173462,
				0.7854067087173462,
				0.7854067087173462
			],
			"translation":[
				-0.03231239318847656,
				0.8914482593536377,
				0.18758603930473328
			]
		},
		{
			"mesh":1,
			"name":"Cube.001",
			"scale":[
				0.7854067087173462,
				0.7854067087173462,
				0.7854067087173462
			],
			"translation":[
				0.2685534656047821,
				1.7281107902526855,
				0.21648874878883362
			]
		},
		{
			"mesh":2,
			"name":"Cylinder.025",
			"scale":[
				0.7854067087173462,
				0.7854067087173462,
				0.7854067087173462
			],
			"translation":[
				0.2589033544063568,
				1.5926746129989624,
				0.23164168000221252
			]
		},
		{
			"mesh":3,
			"name":"Cylinder.026",
			"scale":[
				0.7854067087173462,
				0.7854067087173462,
				0.7854067087173462
			],
			"translation":[
				0.2589033544063568,
				2.470940589904785,
				1.9330533742904663
			]
		},
		{
			"mesh":4,
			"name":"Cylinder.027",
			"scale":[
				0.7854067087173462,
				0.7854067087173462,
				0.7854067087173462
			],
			"translation":[
				0.25800588726997375,
				2.432982921600342,
				0.3224751949310303
			]
		},
		{
			"mesh":5,
			"name":"Cylinder.028",
			"scale":[
				0.6598604321479797,
				0.6598604321479797,
				0.6598604321479797
			],
			"translation":[
				0.2572832405567169,
				2.3931808471679688,
				-0.9823845624923706
			]
		},
		{
			"mesh":6,
			"name":"Cylinder.029",
			"scale":[
				0.5609087944030762,
				0.5609087944030762,
				0.5609087944030762
			],
			"translation":[
				0.2567136585712433,
				2.3618099689483643,
				-1.9178255796432495
			]
		}
	],
	"materials":[
		{
			"doubleSided":true,
			"name":"Material.001",
			"pbrMetallicRoughness":{
				"baseColorFactor":[
					0.07198866456747055,
					0.07198866456747055,
					0.07198866456747055,
					1
				],
				"metallicFactor":0,
				"roughnessFactor":0.5
			}
		},
		{
			"doubleSided":true,
			"name":"Material.002",
			"pbrMetallicRoughness":{
				"baseColorFactor":[
					0.031553711742162704,
					0.031931232661008835,
					0.03117940202355385,
					1
				],
				"metallicFactor":0,
				"roughnessFactor":0.5
			}
		},
		{
			"doubleSided":true,
			"name":"Plate",
			"pbrMetallicRoughness":{
				"baseColorFactor":[
					0.031931180506944656,
					0.031931180506944656,
					0.031931180506944656,
					1
				],
				"metallicFactor":0,
				"roughnessFactor":0.5
			}
		},
		{
			"doubleSided":true,
			"name":"Bar",
			"pbrMetallicRoughness":{
				"baseColorFactor":[
					0.5474931597709656,
					0.5474931597709656,
					0.5474931597709656,
					1
				],
				"roughnessFactor":0.31889763474464417
			}
		}
	],
	"meshes":[
		{
			"name":"Cube.001",
			"primitives":[
				{
					"attributes":{
						"POSITION":0,
						"NORMAL":1,
						"TEXCOORD_0":2
					},
					"indices":3,
					"material":0
				},
				{
					"attributes":{
						"POSITION":4,
						"NORMAL":5,
						"TEXCOORD_0":6
					},
					"indices":7,
					"material":1
				}
			]
		},
		{
			"name":"Cube.002",
			"primitives":[
				{
					"attributes":{
						"POSITION":8,
						"NORMAL":9,
						"TEXCOORD_0":10
					},
					"indices":11,
					"material":0
				}
			]
		},
		{
			"name":"Cylinder.053",
			"primitives":[
				{
					"attributes":{
						"POSITION":12,
						"NORMAL":13,
						"TEXCOORD_0":14
					},
					"indices":15,
					"material":2
				},
				{
					"attributes":{
						"POSITION":16,
						"NORMAL":17,
						"TEXCOORD_0":18
					},
					"indices":19,
					"material":3
				}
			]
		},
		{
			"name":"Cylinder.054",
			"primitives":[
				{
					"attributes":{
						"POSITION":20,
						"NORMAL":21,
						"TEXCOORD_0":22
					},
					"indices":23,
					"material":2
				},
				{
					"attributes":{
						"POSITION":24,
						"NORMAL":25,
						"TEXCOORD_0":26
					},
					"indices":27,
					"material":3
				}
			]
		},
		{
			"name":"Cylinder.055",
			"primitives":[
				{
					"attributes":{
						"POSITION":28,
						"NORMAL":29,
						"TEXCOORD_0":30
					},
					"indices":23,
					"material":2
				},
				{
					"attributes":{
						"POSITION":31,
						"NORMAL":32,
						"TEXCOORD_0":33
					},
					"indices":27,
					"material":3
				}
			]
		},
		{
			"name":"Cylinder.056",
			"primitives":[
				{
					"attributes":{
						"POSITION":34,
						"NORMAL":35,
						"TEXCOORD_0":36
					},
					"indices":23,
					"material":2
				},
				{
					"attributes":{
						"POSITION":37,
						"NORMAL":38,
						"TEXCOORD_0":39
					},
					"indices":27,
					"material":3
				}
			]
		},
		{
			"name":"Cylinder.057",
			"primitives":[
				{
					"attributes":{
						"POSITION":40,
						"NORMAL":41,
						"TEXCOORD_0":42
					},
					"indices":43,
					"material":2
				},
				{
					"attributes":{
						"POSITION":44,
						"NORMAL":45,
						"TEXCOORD_0":46
					},
					"indices":47,
					"material":3
				}
			]
		}
	],
	"accessors":[
		{
			"bufferView":0,
			"componentType":5126,
			"count":442,
			"max":[
				0.4101783335208893,
				1.8680105209350586,
				3.0636279582977295
			],
			"min":[
				-0.39101651310920715,
				-1.1400984525680542,
				-2.989152193069458
			],
			"type":"VEC3"
		},
		{
			"bufferView":1,
			"componentType":5126,
			"count":442,
			"type":"VEC3"
		},
		{
			"bufferView":2,
			"componentType":5126,
			"count":442,
			"type":"VEC2"
		},
		{
			"bufferView":3,
			"componentType":5123,
			"count":990,
			"type":"SCALAR"
		},
		{
			"bufferView":4,
			"componentType":5126,
			"count":60,
			"max":[
				1.136722207069397,
				-0.8982763886451721,
				3.0636279582977295
			],
			"min":[
				0.4101783335208893,
				-1.1400984525680542,
				-2.989152193069458
			],
			"type":"VEC3"
		},
		{
			"bufferView":5,
			"componentType":5126,
			"count":60,
			"type":"VEC3"
		},
		{
			"bufferView":6,
			"componentType":5126,
			"count":60,
			"type":"VEC2"
		},
		{
			"bufferView":7,
			"componentType":5123,
			"count":90,
			"type":"SCALAR"
		},
		{
			"bufferView":8,
			"componentType":5126,
			"count":96,
			"max":[
				0.5173836946487427,
				0.7032772898674011,
				3.169025421142578
			],
			"min":[
				-0.55794358253479,
				-0.7114725708961487,
				-3.168149471282959
			],
			"type":"VEC3"
		},
		{
			"bufferView":9,
			"componentType":5126,
			"count":96,
			"type":"VEC3"
		},
		{
			"bufferView":10,
			"componentType":5126,
			"count":96,
			"type":"VEC2"
		},
		{
			"bufferView":11,
			"componentType":5123,
			"count":144,
			"type":"SCALAR"
		},
		{
			"bufferView":12,
			"componentType":5126,
			"count":2880,
			"max":[
				0.41943079233169556,
				0.3797261714935303,
				3.2166221141815186
			],
			"min":[
				-0.4185349941253662,
				-0.3799663186073303,
				-3.216609239578247
			],
			"type":"VEC3"
		},
		{
			"bufferView":13,
			"componentType":5126,
			"count":2880,
			"type":"VEC3"
		},
		{
			"bufferView":14,
			"componentType":5126,
			"count":2880,
			"type":"VEC2"
		},
		{
			"bufferView":15,
			"componentType":5123,
			"count":5184,
			"type":"SCALAR"
		},
		{
			"bufferView":16,
			"componentType":5126,
			"count":432,
			"max":[
				0.42775774002075195,
				0.12045177817344666,
				2.9424095153808594
			],
			"min":[
				-0.4340050518512726,
				-0.11877678334712982,
				-2.9426844120025635
			],
			"type":"VEC3"
		},
		{
			"bufferView":17,
			"componentType":5126,
			"count":432,
			"type":"VEC3"
		},
		{
			"bufferView":18,
			"componentType":5126,
			"count":432,
			"type":"VEC2"
		},
		{
			"bufferView":19,
			"componentType":5123,
			"count":756,
			"type":"SCALAR"
		},
		{
			"bufferView":20,
			"componentType":5126,
			"count":960,
			"max":[
				0.41943079233169556,
				0.3797261714935303,
				1.0503411293029785
			],
			"min":[
				-0.4185349941253662,
				-0.3799663186073303,
				-1.0503058433532715
			],
			"type":"VEC3"
		},
		{
			"bufferView":21,
			"componentType":5126,
			"count":960,
			"type":"VEC3"
		},
		{
			"bufferView":22,
			"componentType":5126,
			"count":960,
			"type":"VEC2"
		},
		{
			"bufferView":23,
			"componentType":5123,
			"count":1728,
			"type":"SCALAR"
		},
		{
			"bufferView":24,
			"componentType":5126,
			"count":144,
			"max":[
				0.42775774002075195,
				0.12045178562402725,
				0.776128351688385
			],
			"min":[
				-0.4340050518512726,
				-0.11877677589654922,
				-0.7763810753822327
			],
			"type":"VEC3"
		},
		{
			"bufferView":25,
			"componentType":5126,
			"count":144,
			"type":"VEC3"
		},
		{
			"bufferView":26,
			"componentType":5126,
			"count":144,
			"type":"VEC2"
		},
		{
			"bufferView":27,
			"componentType":5123,
			"count":252,
			"type":"SCALAR"
		},
		{
			"bufferView":28,
			"componentType":5126,
			"count":960,
			"max":[
				0.3499599099159241,
				0.31683167815208435,
				0.8763726353645325
			],
			"min":[
				-0.34921249747276306,
				-0.31703194975852966,
				-0.8763415217399597
			],
			"type":"VEC3"
		},
		{
			"bufferView":29,
			"componentType":5126,
			"count":960,
			"type":"VEC3"
		},
		{
			"bufferView":30,
			"componentType":5126,
			"count":960,
			"type":"VEC2"
		},
		{
			"bufferView":31,
			"componentType":5126,
			"count":144,
			"max":[
				0.3569076657295227,
				0.10050123929977417,
				0.6475780606269836
			],
			"min":[
				-0.36212024092674255,
				-0.09910358488559723,
				-0.6477872729301453
			],
			"type":"VEC3"
		},
		{
			"bufferView":32,
			"componentType":5126,
			"count":144,
			"type":"VEC3"
		},
		{
			"bufferView":33,
			"componentType":5126,
			"count":144,
			"type":"VEC2"
		},
		{
			"bufferView":34,
			"componentType":5126,
			"count":960,
			"max":[
				0.3499599099159241,
				0.31683167815208435,
				0.8763726353645325
			],
			"min":[
				-0.34921249747276306,
				-0.31703194975852966,
				-0.8763415217399597
			],
			"type":"VEC3"
		},
		{
			"bufferView":35,
			"componentType":5126,
			"count":960,
			"type":"VEC3"
		},
		{
			"bufferView":36,
			"componentType":5126,
			"count":960,
			"type":"VEC2"
		},
		{
			"bufferView":37,
			"componentType":5126,
			"count":144,
			"max":[
				0.3569076657295227,
				0.10050123929977417,
				0.6475780606269836
			],
			"min":[
				-0.36212024092674255,
				-0.09910358488559723,
				-0.6477872729301453
			],
			"type":"VEC3"
		},
		{
			"bufferView":38,
			"componentType":5126,
			"count":144,
			"type":"VEC3"
		},
		{
			"bufferView":39,
			"componentType":5126,
			"count":144,
			"type":"VEC2"
		},
		{
			"bufferView":40,
			"componentType":5126,
			"count":640,
			"max":[
				0.3499599099159241,
				0.3168316185474396,
				0.5751243829727173
			],
			"min":[
				-0.34921249747276306,
				-0.31703200936317444,
				-0.5750943422317505
			],
			"type":"VEC3"
		},
		{
			"bufferView":41,
			"componentType":5126,
			"count":640,
			"type":"VEC3"
		},
		{
			"bufferView":42,
			"componentType":5126,
			"count":640,
			"type":"VEC2"
		},
		{
			"bufferView":43,
			"componentType":5123,
			"count":1152,
			"type":"SCALAR"
		},
		{
			"bufferView":44,
			"componentType":5126,
			"count":96,
			"max":[
				0.3569076657295227,
				0.10050118714570999,
				0.3463297486305237
			],
			"min":[
				-0.36212024092674255,
				-0.09910362958908081,
				-0.34654006361961365
			],
			"type":"VEC3"
		},
		{
			"bufferView":45,
			"componentType":5126,
			"count":96,
			"type":"VEC3"
		},
		{
			"bufferView":46,
			"componentType":5126,
			"count":96,
			"type":"VEC2"
		},
		{
			"bufferView":47,
			"componentType":5123,
			"count":168,
			"type":"SCALAR"
		}
	],
	"bufferViews":[
		{
			"buffer":0,
			"byteLength":5304,
			"byteOffset":0,
			"target":34962
		},
		{
			"buffer":0,
			"byteLength":5304,
			"byteOffset":5304,
			"target":34962
		},
		{
			"buffer":0,
			"byteLength":3536,
			"byteOffset":10608,
			"target":34962
		},
		{
			"buffer":0,
			"byteLength":1980,
			"byteOffset":14144,
			"target":34963
		},
		{
			"buffer":0,
			"byteLength":720,
			"byteOffset":16124,
			"target":34962
		},
		{
			"buffer":0,
			"byteLength":720,
			"byteOffset":16844,
			"target":34962
		},
		{
			"buffer":0,
			"byteLength":480,
			"byteOffset":17564,
			"target":34962
		},
		{
			"buffer":0,
			"byteLength":180,
			"byteOffset":18044,
			"target":34963
		},
		{
			"buffer":0,
			"byteLength":1152,
			"byteOffset":18224,
			"target":34962
		},
		{
			"buffer":0,
			"byteLength":1152,
			"byteOffset":19376,
			"target":34962
		},
		{
			"buffer":0,
			"byteLength":768,
			"byteOffset":20528,
			"target":34962
		},
		{
			"buffer":0,
			"byteLength":288,
			"byteOffset":21296,
			"target":34963
		},
		{
			"buffer":0,
			"byteLength":34560,
			"byteOffset":21584,
			"target":34962
		},
		{
			"buffer":0,
			"byteLength":34560,
			"byteOffset":56144,
			"target":34962
		},
		{
			"buffer":0,
			"byteLength":23040,
			"byteOffset":90704,
			"target":34962
		},
		{
			"buffer":0,
			"byteLength":10368,
			"byteOffset":113744,
			"target":34963
		},
		{
			"buffer":0,
			"byteLength":5184,
			"byteOffset":124112,
			"target":34962
		},
		{
			"buffer":0,
			"byteLength":5184,
			"byteOffset":129296,
			"target":34962
		},
		{
			"buffer":0,
			"byteLength":3456,
			"byteOffset":134480,
			"target":34962
		},
		{
			"buffer":0,
			"byteLength":1512,
			"byteOffset":137936,
			"target":34963
		},
		{
			"buffer":0,
			"byteLength":11520,
			"byteOffset":139448,
			"target":34962
		},
		{
			"buffer":0,
			"byteLength":11520,
			"byteOffset":150968,
			"target":34962
		},
		{
			"buffer":0,
			"byteLength":7680,
			"byteOffset":162488,
			"target":34962
		},
		{
			"buffer":0,
			"byteLength":3456,
			"byteOffset":170168,
			"target":34963
		},
		{
			"buffer":0,
			"byteLength":1728,
			"byteOffset":173624,
			"target":34962
		},
		{
			"buffer":0,
			"byteLength":1728,
			"byteOffset":175352,
			"target":34962
		},
		{
			"buffer":0,
			"byteLength":1152,
			"byteOffset":177080,
			"target":34962
		},
		{
			"buffer":0,
			"byteLength":504,
			"byteOffset":178232,
			"target":34963
		},
		{
			"buffer":0,
			"byteLength":11520,
			"byteOffset":178736,
			"target":34962
		},
		{
			"buffer":0,
			"byteLength":11520,
			"byteOffset":190256,
			"target":34962
		},
		{
			"buffer":0,
			"byteLength":7680,
			"byteOffset":201776,
			"target":34962
		},
		{
			"buffer":0,
			"byteLength":1728,
			"byteOffset":209456,
			"target":34962
		},
		{
			"buffer":0,
			"byteLength":1728,
			"byteOffset":211184,
			"target":34962
		},
		{
			"buffer":0,
			"byteLength":1152,
			"byteOffset":212912,
			"target":34962
		},
		{
			"buffer":0,
			"byteLength":11520,
			"byteOffset":214064,
			"target":34962
		},
		{
			"buffer":0,
			"byteLength":11520,
			"byteOffset":225584,
			"target":34962
		},
		{
			"buffer":0,
			"byteLength":7680,
			"byteOffset":237104,
			"target":34962
		},
		{
			"buffer":0,
			"byteLength":1728,
			"byteOffset":244784,
			"target":34962
		},
		{
			"buffer":0,
			"byteLength":1728,
			"byteOffset":246512,
			"target":34962
		},
		{
			"buffer":0,
			"byteLength":1152,
			"byteOffset":248240,
			"target":34962
		},
		{
			"buffer":0,
			"byteLength":7680,
			"byteOffset":249392,
			"target":34962
		},
		{
			"buffer":0,
			"byteLength":7680,
			"byteOffset":257072,
			"target":34962
		},
		{
			"buffer":0,
			"byteLength":5120,
			"byteOffset":264752,
			"target":34962
		},
		{
			"buffer":0,
			"byteLength":2304,
			"byteOffset":269872,
			"target":34963
		},
		{
			"buffer":0,
			"byteLength":1152,
			"byteOffset":272176,
			"target":34962
		},
		{
			"buffer":0,
			"byteLength":1152,
			"byteOffset":273328,
			"target":34962
		},
		{
			"buffer":0,
			"byteLength":768,
			"byteOffset":274480,
			"target":34962
		},
		{
			"buffer":0,
			"byteLength":336,
			"byteOffset":275248,
			"target":34963
		}
	],
	"buffers":[
		{
			"byteLength":275584,
			"uri":"scene.bin"
		}
	]
}
