{
	"asset":{
		"generator":"Khronos glTF Blender I/O v4.3.47",
		"version":"2.0"
	},
	"scene":0,
	"scenes":[
		{
			"name":"Scene",
			"nodes":[
				0,
				1,
				2,
				3,
				4,
				5,
				6
			]
		}
	],
	"nodes":[
		{
			"mesh":0,
			"name":"Cylinder",
			"scale":[
				1.4348266124725342,
				1.4348266124725342,
				1.4348266124725342
			],
			"translation":[
				-0.006548240780830383,
				0.6356156468391418,
				1.3975468873977661
			]
		},
		{
			"mesh":1,
			"name":"Cylinder.002",
			"rotation":[
				0,
				1,
				0,
				4.3711395392165286e-08
			],
			"scale":[
				1.4348266124725342,
				1.4348266124725342,
				1.4348266124725342
			],
			"translation":[
				-0.006548598408699036,
				0.6332621574401855,
				1.8315231800079346
			]
		},
		{
			"mesh":2,
			"name":"Cylinder.003",
			"scale":[
				1.0505415201187134,
				1.0505415201187134,
				1.0505415201187134
			],
			"translation":[
				-0.0015470534563064575,
				0.6353330612182617,
				1.56223726272583
			]
		},
		{
			"mesh":3,
			"name":"Cylinder.004",
			"rotation":[
				0,
				1,
				0,
				4.3711395392165286e-08
			],
			"scale":[
				1.4348266124725342,
				1.4348266124725342,
				1.4348266124725342
			],
			"translation":[
				-0.0032141953706741333,
				0.6356156468391418,
				-1.4015858173370361
			]
		},
		{
			"mesh":4,
			"name":"Cylinder.005",
			"rotation":[
				0,
				1,
				0,
				4.3711395392165286e-08
			],
			"scale":[
				1.4348266124725342,
				1.4348266124725342,
				1.4348266124725342
			],
			"translation":[
				-0.004881218075752258,
				0.6332615613937378,
				-0.002019241452217102
			]
		},
		{
			"mesh":5,
			"name":"Cylinder.006",
			"rotation":[
				0,
				1,
				0,
				4.371139183945161e-08
			],
			"scale":[
				1.0505415201187134,
				1.0505415201187134,
				1.0505415201187134
			],
			"translation":[
				-0.008215263485908508,
				0.6353330612182617,
				-1.5662758350372314
			]
		},
		{
			"mesh":6,
			"name":"Cylinder.007",
			"scale":[
				1.4348266124725342,
				1.4348266124725342,
				1.4348266124725342
			],
			"translation":[
				-0.006548240780830383,
				0.6332614421844482,
				-1.8355553150177002
			]
		}
	],
	"materials":[
		{
			"doubleSided":true,
			"name":"Plate.003",
			"pbrMetallicRoughness":{
				"baseColorFactor":[
					0.031931180506944656,
					0.031931180506944656,
					0.031931180506944656,
					1
				],
				"metallicFactor":0,
				"roughnessFactor":0.5
			}
		},
		{
			"doubleSided":true,
			"name":"Bar.003",
			"pbrMetallicRoughness":{
				"baseColorFactor":[
					0.5474931597709656,
					0.5474931597709656,
					0.5474931597709656,
					1
				],
				"roughnessFactor":0.31889763474464417
			}
		}
	],
	"meshes":[
		{
			"name":"Cylinder.091",
			"primitives":[
				{
					"attributes":{
						"POSITION":0,
						"NORMAL":1,
						"TEXCOORD_0":2
					},
					"indices":3,
					"material":0
				}
			]
		},
		{
			"name":"Cylinder.092",
			"primitives":[
				{
					"attributes":{
						"POSITION":4,
						"NORMAL":5,
						"TEXCOORD_0":6
					},
					"indices":7,
					"material":0
				}
			]
		},
		{
			"name":"Cylinder.093",
			"primitives":[
				{
					"attributes":{
						"POSITION":8,
						"NORMAL":9,
						"TEXCOORD_0":10
					},
					"indices":11,
					"material":0
				}
			]
		},
		{
			"name":"Cylinder.094",
			"primitives":[
				{
					"attributes":{
						"POSITION":12,
						"NORMAL":13,
						"TEXCOORD_0":14
					},
					"indices":3,
					"material":0
				}
			]
		},
		{
			"name":"Cylinder.095",
			"primitives":[
				{
					"attributes":{
						"POSITION":15,
						"NORMAL":16,
						"TEXCOORD_0":17
					},
					"indices":18,
					"material":1
				}
			]
		},
		{
			"name":"Cylinder.096",
			"primitives":[
				{
					"attributes":{
						"POSITION":19,
						"NORMAL":20,
						"TEXCOORD_0":21
					},
					"indices":11,
					"material":0
				}
			]
		},
		{
			"name":"Cylinder.097",
			"primitives":[
				{
					"attributes":{
						"POSITION":22,
						"NORMAL":23,
						"TEXCOORD_0":24
					},
					"indices":7,
					"material":0
				}
			]
		}
	],
	"accessors":[
		{
			"bufferView":0,
			"componentType":5126,
			"count":296,
			"max":[
				0.4441332221031189,
				0.4424924850463867,
				0.07390296459197998
			],
			"min":[
				-0.4441332221031189,
				-0.4457739293575287,
				-0.05550815537571907
			],
			"type":"VEC3"
		},
		{
			"bufferView":1,
			"componentType":5126,
			"count":296,
			"type":"VEC3"
		},
		{
			"bufferView":2,
			"componentType":5126,
			"count":296,
			"type":"VEC2"
		},
		{
			"bufferView":3,
			"componentType":5123,
			"count":576,
			"type":"SCALAR"
		},
		{
			"bufferView":4,
			"componentType":5126,
			"count":80,
			"max":[
				0.052309684455394745,
				0.052309632301330566,
				0.0037527084350585938
			],
			"min":[
				-0.05230966955423355,
				-0.05230975151062012,
				-0.004415988922119141
			],
			"type":"VEC3"
		},
		{
			"bufferView":5,
			"componentType":5126,
			"count":80,
			"type":"VEC3"
		},
		{
			"bufferView":6,
			"componentType":5126,
			"count":80,
			"type":"VEC2"
		},
		{
			"bufferView":7,
			"componentType":5123,
			"count":132,
			"type":"SCALAR"
		},
		{
			"bufferView":8,
			"componentType":5126,
			"count":320,
			"max":[
				0.4476187825202942,
				0.4426894187927246,
				0.07279927283525467
			],
			"min":[
				-0.4476187825202942,
				-0.4455769956111908,
				-0.05661184340715408
			],
			"type":"VEC3"
		},
		{
			"bufferView":9,
			"componentType":5126,
			"count":320,
			"type":"VEC3"
		},
		{
			"bufferView":10,
			"componentType":5126,
			"count":320,
			"type":"VEC2"
		},
		{
			"bufferView":11,
			"componentType":5123,
			"count":576,
			"type":"SCALAR"
		},
		{
			"bufferView":12,
			"componentType":5126,
			"count":296,
			"max":[
				0.4441332221031189,
				0.4424924850463867,
				0.07390296459197998
			],
			"min":[
				-0.4441332221031189,
				-0.4457739293575287,
				-0.05550815537571907
			],
			"type":"VEC3"
		},
		{
			"bufferView":13,
			"componentType":5126,
			"count":296,
			"type":"VEC3"
		},
		{
			"bufferView":14,
			"componentType":5126,
			"count":296,
			"type":"VEC2"
		},
		{
			"bufferView":15,
			"componentType":5126,
			"count":76,
			"max":[
				0.053471531718969345,
				0.05230970308184624,
				1.274131417274475
			],
			"min":[
				-0.053471531718969345,
				-0.052309680730104446,
				-1.2741315364837646
			],
			"type":"VEC3"
		},
		{
			"bufferView":16,
			"componentType":5126,
			"count":76,
			"type":"VEC3"
		},
		{
			"bufferView":17,
			"componentType":5126,
			"count":76,
			"type":"VEC2"
		},
		{
			"bufferView":18,
			"componentType":5123,
			"count":132,
			"type":"SCALAR"
		},
		{
			"bufferView":19,
			"componentType":5126,
			"count":320,
			"max":[
				0.4476187825202942,
				0.4426894187927246,
				0.07279927283525467
			],
			"min":[
				-0.4476187825202942,
				-0.4455769956111908,
				-0.05661184340715408
			],
			"type":"VEC3"
		},
		{
			"bufferView":20,
			"componentType":5126,
			"count":320,
			"type":"VEC3"
		},
		{
			"bufferView":21,
			"componentType":5126,
			"count":320,
			"type":"VEC2"
		},
		{
			"bufferView":22,
			"componentType":5126,
			"count":80,
			"max":[
				0.052309684455394745,
				0.05230970308184624,
				0.0037528674583882093
			],
			"min":[
				-0.05230966955423355,
				-0.052309680730104446,
				-0.004415830131620169
			],
			"type":"VEC3"
		},
		{
			"bufferView":23,
			"componentType":5126,
			"count":80,
			"type":"VEC3"
		},
		{
			"bufferView":24,
			"componentType":5126,
			"count":80,
			"type":"VEC2"
		}
	],
	"bufferViews":[
		{
			"buffer":0,
			"byteLength":3552,
			"byteOffset":0,
			"target":34962
		},
		{
			"buffer":0,
			"byteLength":3552,
			"byteOffset":3552,
			"target":34962
		},
		{
			"buffer":0,
			"byteLength":2368,
			"byteOffset":7104,
			"target":34962
		},
		{
			"buffer":0,
			"byteLength":1152,
			"byteOffset":9472,
			"target":34963
		},
		{
			"buffer":0,
			"byteLength":960,
			"byteOffset":10624,
			"target":34962
		},
		{
			"buffer":0,
			"byteLength":960,
			"byteOffset":11584,
			"target":34962
		},
		{
			"buffer":0,
			"byteLength":640,
			"byteOffset":12544,
			"target":34962
		},
		{
			"buffer":0,
			"byteLength":264,
			"byteOffset":13184,
			"target":34963
		},
		{
			"buffer":0,
			"byteLength":3840,
			"byteOffset":13448,
			"target":34962
		},
		{
			"buffer":0,
			"byteLength":3840,
			"byteOffset":17288,
			"target":34962
		},
		{
			"buffer":0,
			"byteLength":2560,
			"byteOffset":21128,
			"target":34962
		},
		{
			"buffer":0,
			"byteLength":1152,
			"byteOffset":23688,
			"target":34963
		},
		{
			"buffer":0,
			"byteLength":3552,
			"byteOffset":24840,
			"target":34962
		},
		{
			"buffer":0,
			"byteLength":3552,
			"byteOffset":28392,
			"target":34962
		},
		{
			"buffer":0,
			"byteLength":2368,
			"byteOffset":31944,
			"target":34962
		},
		{
			"buffer":0,
			"byteLength":912,
			"byteOffset":34312,
			"target":34962
		},
		{
			"buffer":0,
			"byteLength":912,
			"byteOffset":35224,
			"target":34962
		},
		{
			"buffer":0,
			"byteLength":608,
			"byteOffset":36136,
			"target":34962
		},
		{
			"buffer":0,
			"byteLength":264,
			"byteOffset":36744,
			"target":34963
		},
		{
			"buffer":0,
			"byteLength":3840,
			"byteOffset":37008,
			"target":34962
		},
		{
			"buffer":0,
			"byteLength":3840,
			"byteOffset":40848,
			"target":34962
		},
		{
			"buffer":0,
			"byteLength":2560,
			"byteOffset":44688,
			"target":34962
		},
		{
			"buffer":0,
			"byteLength":960,
			"byteOffset":47248,
			"target":34962
		},
		{
			"buffer":0,
			"byteLength":960,
			"byteOffset":48208,
			"target":34962
		},
		{
			"buffer":0,
			"byteLength":640,
			"byteOffset":49168,
			"target":34962
		}
	],
	"buffers":[
		{
			"byteLength":49808,
			"uri":"scene.bin"
		}
	]
}
