{
	"asset":{
		"generator":"Khronos glTF Blender I/O v4.3.47",
		"version":"2.0"
	},
	"scene":0,
	"scenes":[
		{
			"name":"Scene",
			"nodes":[
				0,
				1
			]
		}
	],
	"nodes":[
		{
			"mesh":0,
			"name":"Cube.004",
			"translation":[
				-0.003794887103140354,
				0.10561804473400116,
				-0.0019913166761398315
			]
		},
		{
			"mesh":1,
			"name":"Cube.005",
			"translation":[
				-0.003794887103140354,
				0.10561804473400116,
				-0.0019913166761398315
			]
		}
	],
	"materials":[
		{
			"doubleSided":true,
			"name":"Material.003",
			"pbrMetallicRoughness":{
				"baseColorFactor":[
					0.07198866456747055,
					0.07198866456747055,
					0.07198866456747055,
					1
				],
				"metallicFactor":0,
				"roughnessFactor":0.5
			}
		},
		{
			"doubleSided":true,
			"name":"Material.006",
			"pbrMetallicRoughness":{
				"baseColorFactor":[
					0.031553711742162704,
					0.031931232661008835,
					0.03117940202355385,
					1
				],
				"metallicFactor":0,
				"roughnessFactor":0.5
			}
		}
	],
	"meshes":[
		{
			"name":"Cube.005",
			"primitives":[
				{
					"attributes":{
						"POSITION":0,
						"NORMAL":1,
						"TEXCOORD_0":2
					},
					"indices":3,
					"material":0
				},
				{
					"attributes":{
						"POSITION":4,
						"NORMAL":5,
						"TEXCOORD_0":6
					},
					"indices":7,
					"material":1
				}
			]
		},
		{
			"name":"Cube.006",
			"primitives":[
				{
					"attributes":{
						"POSITION":8,
						"NORMAL":9,
						"TEXCOORD_0":10
					},
					"indices":11,
					"material":1
				}
			]
		}
	],
	"accessors":[
		{
			"bufferView":0,
			"componentType":5126,
			"count":112,
			"max":[
				3.396240711212158,
				0.7050248384475708,
				0.3639143109321594
			],
			"min":[
				-0.07409524917602539,
				-0.07451566308736801,
				-0.3639163672924042
			],
			"type":"VEC3"
		},
		{
			"bufferView":1,
			"componentType":5126,
			"count":112,
			"type":"VEC3"
		},
		{
			"bufferView":2,
			"componentType":5126,
			"count":112,
			"type":"VEC2"
		},
		{
			"bufferView":3,
			"componentType":5123,
			"count":240,
			"type":"SCALAR"
		},
		{
			"bufferView":4,
			"componentType":5126,
			"count":200,
			"max":[
				3.4273431301116943,
				0.04209341108798981,
				0.6196519136428833
			],
			"min":[
				-0.10519763827323914,
				-0.10561804473400116,
				-0.6196538209915161
			],
			"type":"VEC3"
		},
		{
			"bufferView":5,
			"componentType":5126,
			"count":200,
			"type":"VEC3"
		},
		{
			"bufferView":6,
			"componentType":5126,
			"count":200,
			"type":"VEC2"
		},
		{
			"bufferView":7,
			"componentType":5123,
			"count":456,
			"type":"SCALAR"
		},
		{
			"bufferView":8,
			"componentType":5126,
			"count":100,
			"max":[
				3.5625879764556885,
				0.927078366279602,
				0.5822020769119263
			],
			"min":[
				-0.24044251441955566,
				0.7050248384475708,
				-0.5821953415870667
			],
			"type":"VEC3"
		},
		{
			"bufferView":9,
			"componentType":5126,
			"count":100,
			"type":"VEC3"
		},
		{
			"bufferView":10,
			"componentType":5126,
			"count":100,
			"type":"VEC2"
		},
		{
			"bufferView":11,
			"componentType":5123,
			"count":372,
			"type":"SCALAR"
		}
	],
	"bufferViews":[
		{
			"buffer":0,
			"byteLength":1344,
			"byteOffset":0,
			"target":34962
		},
		{
			"buffer":0,
			"byteLength":1344,
			"byteOffset":1344,
			"target":34962
		},
		{
			"buffer":0,
			"byteLength":896,
			"byteOffset":2688,
			"target":34962
		},
		{
			"buffer":0,
			"byteLength":480,
			"byteOffset":3584,
			"target":34963
		},
		{
			"buffer":0,
			"byteLength":2400,
			"byteOffset":4064,
			"target":34962
		},
		{
			"buffer":0,
			"byteLength":2400,
			"byteOffset":6464,
			"target":34962
		},
		{
			"buffer":0,
			"byteLength":1600,
			"byteOffset":8864,
			"target":34962
		},
		{
			"buffer":0,
			"byteLength":912,
			"byteOffset":10464,
			"target":34963
		},
		{
			"buffer":0,
			"byteLength":1200,
			"byteOffset":11376,
			"target":34962
		},
		{
			"buffer":0,
			"byteLength":1200,
			"byteOffset":12576,
			"target":34962
		},
		{
			"buffer":0,
			"byteLength":800,
			"byteOffset":13776,
			"target":34962
		},
		{
			"buffer":0,
			"byteLength":744,
			"byteOffset":14576,
			"target":34963
		}
	],
	"buffers":[
		{
			"byteLength":15320,
			"uri":"scene.bin"
		}
	]
}
