{
	"asset":{
		"generator":"Khronos glTF Blender I/O v4.3.47",
		"version":"2.0"
	},
	"scene":0,
	"scenes":[
		{
			"name":"Scene",
			"nodes":[
				0,
				1,
				2
			]
		}
	],
	"nodes":[
		{
			"mesh":0,
			"name":"Cylinder.019",
			"rotation":[
				0,
				0.7071068286895752,
				0.7071068286895752,
				1.3767879636361613e-07
			],
			"scale":[
				1.241718053817749,
				1.241718053817749,
				1.241718053817749
			],
			"translation":[
				-0.046471938490867615,
				0.07820025831460953,
				0.030763672664761543
			]
		},
		{
			"mesh":1,
			"name":"Cylinder.020",
			"rotation":[
				0,
				0.7071068286895752,
				0.7071068286895752,
				1.3767878215276141e-07
			],
			"scale":[
				1.0505415201187134,
				1.0505415201187134,
				1.0505415201187134
			],
			"translation":[
				0.09203667938709259,
				0.2227523922920227,
				-0.07974071800708771
			]
		},
		{
			"mesh":2,
			"name":"Cylinder.021",
			"rotation":[
				0,
				0.7071068286895752,
				0.7071068286895752,
				1.376787679419067e-07
			],
			"scale":[
				1.0200800895690918,
				1.0200800895690918,
				1.0200800895690918
			],
			"translation":[
				-0.04880325496196747,
				0.3575879633426666,
				0.043494269251823425
			]
		}
	],
	"materials":[
		{
			"doubleSided":true,
			"name":"Plate.004",
			"pbrMetallicRoughness":{
				"baseColorFactor":[
					0.031931180506944656,
					0.031931180506944656,
					0.031931180506944656,
					1
				],
				"metallicFactor":0,
				"roughnessFactor":0.5
			}
		}
	],
	"meshes":[
		{
			"name":"Cylinder.139",
			"primitives":[
				{
					"attributes":{
						"POSITION":0,
						"NORMAL":1,
						"TEXCOORD_0":2
					},
					"indices":3,
					"material":0
				}
			]
		},
		{
			"name":"Cylinder.140",
			"primitives":[
				{
					"attributes":{
						"POSITION":4,
						"NORMAL":5,
						"TEXCOORD_0":6
					},
					"indices":3,
					"material":0
				}
			]
		},
		{
			"name":"Cylinder.141",
			"primitives":[
				{
					"attributes":{
						"POSITION":7,
						"NORMAL":8,
						"TEXCOORD_0":9
					},
					"indices":10,
					"material":0
				}
			]
		}
	],
	"accessors":[
		{
			"bufferView":0,
			"componentType":5126,
			"count":320,
			"max":[
				0.4476187825202942,
				0.4426894187927246,
				0.07279927283525467
			],
			"min":[
				-0.4476187825202942,
				-0.4455769956111908,
				-0.05661184340715408
			],
			"type":"VEC3"
		},
		{
			"bufferView":1,
			"componentType":5126,
			"count":320,
			"type":"VEC3"
		},
		{
			"bufferView":2,
			"componentType":5126,
			"count":320,
			"type":"VEC2"
		},
		{
			"bufferView":3,
			"componentType":5123,
			"count":576,
			"type":"SCALAR"
		},
		{
			"bufferView":4,
			"componentType":5126,
			"count":320,
			"max":[
				0.4476187825202942,
				0.4426894187927246,
				0.07279927283525467
			],
			"min":[
				-0.4476187825202942,
				-0.4455769956111908,
				-0.05661184340715408
			],
			"type":"VEC3"
		},
		{
			"bufferView":5,
			"componentType":5126,
			"count":320,
			"type":"VEC3"
		},
		{
			"bufferView":6,
			"componentType":5126,
			"count":320,
			"type":"VEC2"
		},
		{
			"bufferView":7,
			"componentType":5126,
			"count":456,
			"max":[
				0.4476187825202942,
				0.4426894187927246,
				0.07279927283525467
			],
			"min":[
				-0.4476187825202942,
				-0.4455769956111908,
				-0.05661184340715408
			],
			"type":"VEC3"
		},
		{
			"bufferView":8,
			"componentType":5126,
			"count":456,
			"type":"VEC3"
		},
		{
			"bufferView":9,
			"componentType":5126,
			"count":456,
			"type":"VEC2"
		},
		{
			"bufferView":10,
			"componentType":5123,
			"count":768,
			"type":"SCALAR"
		}
	],
	"bufferViews":[
		{
			"buffer":0,
			"byteLength":3840,
			"byteOffset":0,
			"target":34962
		},
		{
			"buffer":0,
			"byteLength":3840,
			"byteOffset":3840,
			"target":34962
		},
		{
			"buffer":0,
			"byteLength":2560,
			"byteOffset":7680,
			"target":34962
		},
		{
			"buffer":0,
			"byteLength":1152,
			"byteOffset":10240,
			"target":34963
		},
		{
			"buffer":0,
			"byteLength":3840,
			"byteOffset":11392,
			"target":34962
		},
		{
			"buffer":0,
			"byteLength":3840,
			"byteOffset":15232,
			"target":34962
		},
		{
			"buffer":0,
			"byteLength":2560,
			"byteOffset":19072,
			"target":34962
		},
		{
			"buffer":0,
			"byteLength":5472,
			"byteOffset":21632,
			"target":34962
		},
		{
			"buffer":0,
			"byteLength":5472,
			"byteOffset":27104,
			"target":34962
		},
		{
			"buffer":0,
			"byteLength":3648,
			"byteOffset":32576,
			"target":34962
		},
		{
			"buffer":0,
			"byteLength":1536,
			"byteOffset":36224,
			"target":34963
		}
	],
	"buffers":[
		{
			"byteLength":37760,
			"uri":"scene.bin"
		}
	]
}
