{
	"asset":{
		"generator":"Khronos glTF Blender I/O v4.3.47",
		"version":"2.0"
	},
	"scene":0,
	"scenes":[
		{
			"name":"Scene",
			"nodes":[
				0,
				1,
				2
			]
		}
	],
	"nodes":[
		{
			"mesh":0,
			"name":"Cube.004",
			"rotation":[
				0,
				-1,
				0,
				1.9470718370939721e-07
			],
			"translation":[
				0.7832199335098267,
				0.10561804473400116,
				-0.003032118082046509
			]
		},
		{
			"mesh":1,
			"name":"Cube.006",
			"translation":[
				-0.42188456654548645,
				0.10561804473400116,
				-0.0033515989780426025
			]
		},
		{
			"mesh":2,
			"name":"Cube.007",
			"rotation":[
				0,
				0,
				-0.4339967668056488,
				0.9009144306182861
			],
			"translation":[
				-0.3606328070163727,
				1.4079644680023193,
				-0.0033477842807769775
			]
		}
	],
	"materials":[
		{
			"doubleSided":true,
			"name":"Material.009",
			"pbrMetallicRoughness":{
				"baseColorFactor":[
					0.07198866456747055,
					0.07198866456747055,
					0.07198866456747055,
					1
				],
				"metallicFactor":0,
				"roughnessFactor":0.5
			}
		},
		{
			"doubleSided":true,
			"name":"Material.010",
			"pbrMetallicRoughness":{
				"baseColorFactor":[
					0.031553711742162704,
					0.031931232661008835,
					0.03117940202355385,
					1
				],
				"metallicFactor":0,
				"roughnessFactor":0.5
			}
		}
	],
	"meshes":[
		{
			"name":"Cube.019",
			"primitives":[
				{
					"attributes":{
						"POSITION":0,
						"NORMAL":1,
						"TEXCOORD_0":2
					},
					"indices":3,
					"material":0
				},
				{
					"attributes":{
						"POSITION":4,
						"NORMAL":5,
						"TEXCOORD_0":6
					},
					"indices":7,
					"material":1
				}
			]
		},
		{
			"name":"Cube.020",
			"primitives":[
				{
					"attributes":{
						"POSITION":8,
						"NORMAL":9,
						"TEXCOORD_0":10
					},
					"indices":11,
					"material":1
				}
			]
		},
		{
			"name":"Cube.021",
			"primitives":[
				{
					"attributes":{
						"POSITION":12,
						"NORMAL":13,
						"TEXCOORD_0":14
					},
					"indices":15,
					"material":1
				}
			]
		}
	],
	"accessors":[
		{
			"bufferView":0,
			"componentType":5126,
			"count":223,
			"max":[
				1.4395625591278076,
				1.2402561902999878,
				0.3639143109321594
			],
			"min":[
				-0.07409524917602539,
				-0.07451566308736801,
				-0.3639163672924042
			],
			"type":"VEC3"
		},
		{
			"bufferView":1,
			"componentType":5126,
			"count":223,
			"type":"VEC3"
		},
		{
			"bufferView":2,
			"componentType":5126,
			"count":223,
			"type":"VEC2"
		},
		{
			"bufferView":3,
			"componentType":5123,
			"count":528,
			"type":"SCALAR"
		},
		{
			"bufferView":4,
			"componentType":5126,
			"count":192,
			"max":[
				1.4706649780273438,
				0.04209341108798981,
				0.6196519136428833
			],
			"min":[
				-0.10519763827323914,
				-0.10561804473400116,
				-0.6196538209915161
			],
			"type":"VEC3"
		},
		{
			"bufferView":5,
			"componentType":5126,
			"count":192,
			"type":"VEC3"
		},
		{
			"bufferView":6,
			"componentType":5126,
			"count":192,
			"type":"VEC2"
		},
		{
			"bufferView":7,
			"componentType":5123,
			"count":456,
			"type":"SCALAR"
		},
		{
			"bufferView":8,
			"componentType":5126,
			"count":100,
			"max":[
				1.5737138986587524,
				0.927078366279602,
				0.5822020769119263
			],
			"min":[
				0.41752493381500244,
				0.7050248384475708,
				-0.5821953415870667
			],
			"type":"VEC3"
		},
		{
			"bufferView":9,
			"componentType":5126,
			"count":100,
			"type":"VEC3"
		},
		{
			"bufferView":10,
			"componentType":5126,
			"count":100,
			"type":"VEC2"
		},
		{
			"bufferView":11,
			"componentType":5123,
			"count":372,
			"type":"SCALAR"
		},
		{
			"bufferView":12,
			"componentType":5126,
			"count":99,
			"max":[
				0.5123335123062134,
				0.07607398182153702,
				0.5821986794471741
			],
			"min":[
				-1.490872859954834,
				-0.14807669818401337,
				-0.5821987390518188
			],
			"type":"VEC3"
		},
		{
			"bufferView":13,
			"componentType":5126,
			"count":99,
			"type":"VEC3"
		},
		{
			"bufferView":14,
			"componentType":5126,
			"count":99,
			"type":"VEC2"
		},
		{
			"bufferView":15,
			"componentType":5123,
			"count":372,
			"type":"SCALAR"
		}
	],
	"bufferViews":[
		{
			"buffer":0,
			"byteLength":2676,
			"byteOffset":0,
			"target":34962
		},
		{
			"buffer":0,
			"byteLength":2676,
			"byteOffset":2676,
			"target":34962
		},
		{
			"buffer":0,
			"byteLength":1784,
			"byteOffset":5352,
			"target":34962
		},
		{
			"buffer":0,
			"byteLength":1056,
			"byteOffset":7136,
			"target":34963
		},
		{
			"buffer":0,
			"byteLength":2304,
			"byteOffset":8192,
			"target":34962
		},
		{
			"buffer":0,
			"byteLength":2304,
			"byteOffset":10496,
			"target":34962
		},
		{
			"buffer":0,
			"byteLength":1536,
			"byteOffset":12800,
			"target":34962
		},
		{
			"buffer":0,
			"byteLength":912,
			"byteOffset":14336,
			"target":34963
		},
		{
			"buffer":0,
			"byteLength":1200,
			"byteOffset":15248,
			"target":34962
		},
		{
			"buffer":0,
			"byteLength":1200,
			"byteOffset":16448,
			"target":34962
		},
		{
			"buffer":0,
			"byteLength":800,
			"byteOffset":17648,
			"target":34962
		},
		{
			"buffer":0,
			"byteLength":744,
			"byteOffset":18448,
			"target":34963
		},
		{
			"buffer":0,
			"byteLength":1188,
			"byteOffset":19192,
			"target":34962
		},
		{
			"buffer":0,
			"byteLength":1188,
			"byteOffset":20380,
			"target":34962
		},
		{
			"buffer":0,
			"byteLength":792,
			"byteOffset":21568,
			"target":34962
		},
		{
			"buffer":0,
			"byteLength":744,
			"byteOffset":22360,
			"target":34963
		}
	],
	"buffers":[
		{
			"byteLength":23104,
			"uri":"scene.bin"
		}
	]
}
