{
	"asset":{
		"generator":"Khronos glTF Blender I/O v4.4.55",
		"version":"2.0"
	},
	"scene":0,
	"scenes":[
		{
			"name":"Scene",
			"nodes":[
				0
			]
		}
	],
	"nodes":[
		{
			"mesh":0,
			"name":"Cylinder.014",
			"scale":[
				0.6930698156356812,
				0.6930698156356812,
				0.6930698156356812
			]
		}
	],
	"materials":[
		{
			"doubleSided":true,
			"name":"Plate",
			"pbrMetallicRoughness":{
				"baseColorFactor":[
					0.031931180506944656,
					0.031931180506944656,
					0.031931180506944656,
					1
				],
				"metallicFactor":0,
				"roughnessFactor":0.5
			}
		},
		{
			"doubleSided":true,
			"name":"Bar",
			"pbrMetallicRoughness":{
				"baseColorFactor":[
					0.5474931597709656,
					0.5474931597709656,
					0.5474931597709656,
					1
				],
				"roughnessFactor":0.31889763474464417
			}
		}
	],
	"meshes":[
		{
			"name":"Cylinder.043",
			"primitives":[
				{
					"attributes":{
						"POSITION":0,
						"NORMAL":1,
						"TEXCOORD_0":2
					},
					"indices":3,
					"material":0
				},
				{
					"attributes":{
						"POSITION":4,
						"NORMAL":5,
						"TEXCOORD_0":6
					},
					"indices":7,
					"material":1
				}
			]
		}
	],
	"accessors":[
		{
			"bufferView":0,
			"componentType":5126,
			"count":1280,
			"max":[
				0.46152305603027344,
				0.4560699462890625,
				0.5064378976821899
			],
			"min":[
				-0.4612431526184082,
				-0.4595109820365906,
				-0.4930332899093628
			],
			"type":"VEC3"
		},
		{
			"bufferView":1,
			"componentType":5126,
			"count":1280,
			"type":"VEC3"
		},
		{
			"bufferView":2,
			"componentType":5126,
			"count":1280,
			"type":"VEC2"
		},
		{
			"bufferView":3,
			"componentType":5123,
			"count":2304,
			"type":"SCALAR"
		},
		{
			"bufferView":4,
			"componentType":5126,
			"count":48,
			"max":[
				0.07081007957458496,
				0.07458092272281647,
				0.5559608340263367
			],
			"min":[
				-0.07774233818054199,
				-0.07397150993347168,
				-0.554000735282898
			],
			"type":"VEC3"
		},
		{
			"bufferView":5,
			"componentType":5126,
			"count":48,
			"type":"VEC3"
		},
		{
			"bufferView":6,
			"componentType":5126,
			"count":48,
			"type":"VEC2"
		},
		{
			"bufferView":7,
			"componentType":5123,
			"count":84,
			"type":"SCALAR"
		}
	],
	"bufferViews":[
		{
			"buffer":0,
			"byteLength":15360,
			"byteOffset":0,
			"target":34962
		},
		{
			"buffer":0,
			"byteLength":15360,
			"byteOffset":15360,
			"target":34962
		},
		{
			"buffer":0,
			"byteLength":10240,
			"byteOffset":30720,
			"target":34962
		},
		{
			"buffer":0,
			"byteLength":4608,
			"byteOffset":40960,
			"target":34963
		},
		{
			"buffer":0,
			"byteLength":576,
			"byteOffset":45568,
			"target":34962
		},
		{
			"buffer":0,
			"byteLength":576,
			"byteOffset":46144,
			"target":34962
		},
		{
			"buffer":0,
			"byteLength":384,
			"byteOffset":46720,
			"target":34962
		},
		{
			"buffer":0,
			"byteLength":168,
			"byteOffset":47104,
			"target":34963
		}
	],
	"buffers":[
		{
			"byteLength":47272,
			"uri":"scene.bin"
		}
	]
}
